PathFileType	4	(x/y/z)	S02_M20_T14
DataRate	CameraRate	NumFrames	NumMarkers	Units	OrigDataRate	OrigDataStartFrame	OrigNumFrames
240	240	7	51	mm	240	403	460
Frame#	Time	Sternum			R.Acromium			L.Acromium			Top.Head			R.ASIS			L.ASIS			R.PSIS			L.PSIS			R.Great.Tro			L.Great.Tro			R.Iliac.Crest			L.Iliac.Crest			V.Sacral			R.Thigh.Upper.Post			R.Thigh.Lower.Ant			R.Thigh.Lower.Post			R.Thigh.Upper.Ant			R.Knee.Lat			R.Knee.Med			R.Shank.Upper.Post			R.Shank.Lower.Ant			R.Shank.Lower.Post			R.Shank.Upper.Ant			R.Ankle.Lat			R.Ankle.Med			R.Heel.Upper			R.Heel.Med			R.Heel.Lat			R.Toe.Lat			R.Toe.Med			R.Toe.Tip			L.Thigh.Upper.Post			L.Thigh.Lower.Ant			L.Thigh.Lower.Post			L.Thigh.Upper.Ant			L.Knee.Lat			L.Knee.Med			L.Shank.Upper.Post			L.Shank.Lower.Ant			L.Shank.Lower.Post			L.Shank.Upper.Ant			L.Ankle.Lat			L.Ankle.Med			L.Heel.Upper			L.Heel.Med			L.Heel.Lat			L.Toe.Lat			L.Toe.Med			L.Toe.Tip			Cervical.Spine			Back			
		X1	Y1	Z1	X2	Y2	Z2	X3	Y3	Z3	X4	Y4	Z4	X5	Y5	Z5	X6	Y6	Z6	X7	Y7	Z7	X8	Y8	Z8	X9	Y9	Z9	X10	Y10	Z10	X11	Y11	Z11	X12	Y12	Z12	X13	Y13	Z13	X14	Y14	Z14	X15	Y15	Z15	X16	Y16	Z16	X17	Y17	Z17	X18	Y18	Z18	X19	Y19	Z19	X20	Y20	Z20	X21	Y21	Z21	X22	Y22	Z22	X23	Y23	Z23	X24	Y24	Z24	X25	Y25	Z25	X26	Y26	Z26	X27	Y27	Z27	X28	Y28	Z28	X29	Y29	Z29	X30	Y30	Z30	X31	Y31	Z31	X32	Y32	Z32	X33	Y33	Z33	X34	Y34	Z34	X35	Y35	Z35	X36	Y36	Z36	X37	Y37	Z37	X38	Y38	Z38	X39	Y39	Z39	X40	Y40	Z40	X41	Y41	Z41	X42	Y42	Z42	X43	Y43	Z43	X44	Y44	Z44	X45	Y45	Z45	X46	Y46	Z46	X47	Y47	Z47	X48	Y48	Z48	X49	Y49	Z49	X50	Y50	Z50	X51	Y51	Z51	

403	1.675	632.43	1104.6	332.33	516.37	1339.7	469.59	529.19	1337.6	176.12	559.12	1624.6	317.34	613.57	929.29	436.63	606.4	910.1	219.55	396.41	952.29	395.24	384.08	957.99	321.51	569.68	816.43	533.04	472.21	834.1	147.17	515.76	975.27	498.4	478.01	958.76	165.48	363.98	907.22	353.22	648.28	631.23	527.49	724.87	577.2	486.65	665.06	543.37	511.2	703.07	663.45	500.08	706.83	478.5	494.41	703.57	458.9	351.78	670.41	262.95	481.33	761.89	201.71	478.58	695.13	193.7	476.24	742.27	268.2	491	734.83	103.46	471.12	754.31	118.9	391.26	691.57	72.055	406.42	718.12	46.274	381.73	696.72	40.885	441.76	842.02	74.826	513.74	892.32	84.894	417.02	918.44	122.75	479.31	415.99	618.98	182.73	479.38	528.97	189.27	402.42	532.12	207.62	486.01	621.36	165.27	449.23	451.44	203.96	447.46	454.22	342.21	339.72	294.34	214.74	396.37	199.51	233.3	327.83	223.34	234.3	401.7	273.68	214.66	339.85	102.96	249.57	347.32	101.1	332.9	275.83	74.167	286.79	283.86	47.544	319.9	279.9	46.843	258.2	445.28	34.579	227.38	467.46	43.293	337.46	528.53	56.185	290.36	448.29	1396.6	319.75	374.14	1145.2	327.77
404	1.6792	637.23	1103.4	332.49	521.22	1338.6	469.83	534.23	1336.6	176.43	564.06	1623.6	318.05	618.85	928.47	436.6	610.95	909.38	219.44	401.52	951.2	396.01	388.79	956.98	322.35	575.5	815.48	532.99	476.12	833.78	147.41	521.08	974.25	498.69	482.17	957.77	165.92	368.87	906.14	354.07	653.98	630.42	527.31	730.28	576.32	486.04	670.66	542.52	511.16	708.5	662.6	499.34	712.61	477.77	494.28	708.78	457.89	351.45	681.23	261.68	481.82	774.26	202.72	478.73	707.66	193.02	476.66	753.06	268.75	491.18	749.69	103.61	471.51	768.36	119.46	391.59	706.86	71.069	407.18	733.9	45.915	382.38	712.92	40.094	442.49	857.76	77.61	513.63	907.3	88.795	416.7	932.83	127.36	478.75	418.73	619.22	182.81	481.4	528.72	189.3	404.49	532.48	207.7	488.76	621.06	165.3	450.68	451.37	203.92	448.82	454.12	342.2	340.45	294.64	214.77	396.78	199.61	233.27	328.33	223.7	234.35	402.37	273.77	214.62	339.96	103.16	249.61	347.52	101.3	332.93	275.92	74.381	286.84	283.92	47.741	319.96	279.95	47.051	258.25	445.29	34.556	227.37	467.5	43.281	337.45	528.58	56.112	290.32	453.28	1395.7	320.01	378.89	1144.4	327.99
405	1.6833	642.05	1102.2	332.66	526.09	1337.5	470.09	539.27	1335.7	176.76	569.01	1622.6	318.77	624.14	927.61	436.57	615.51	908.66	219.33	406.63	950.06	396.79	393.52	955.94	323.21	581.32	814.45	532.94	480.06	833.45	147.65	526.41	973.19	498.99	486.34	956.75	166.38	373.77	905.02	354.93	659.64	629.56	527.13	735.67	575.37	485.46	676.24	541.61	511.12	713.92	661.69	498.64	718.36	477.02	494.18	713.97	456.84	351.15	691.95	260.5	482.32	786.45	203.8	478.86	720.02	192.47	477.08	763.7	269.37	491.34	764.32	103.91	471.88	782.15	120.14	391.89	721.91	70.262	407.93	749.4	45.73	383.02	728.88	39.502	443.2	873.23	80.501	513.44	921.95	92.76	416.28	946.91	131.99	478.09	421.51	619.44	182.9	483.46	528.46	189.3	406.6	532.82	207.79	491.53	620.73	165.32	452.18	451.28	203.87	450.26	454.01	342.2	341.22	294.95	214.8	397.23	199.71	233.24	328.86	224.07	234.39	403.08	273.85	214.57	340.07	103.37	249.64	347.71	101.51	332.96	276.01	74.601	286.88	283.97	47.946	320.01	280	47.263	258.3	445.29	34.531	227.36	467.54	43.271	337.44	528.62	56.039	290.29	458.29	1394.7	320.29	383.65	1143.5	328.24
406	1.6875	646.89	1101	332.83	530.98	1336.3	470.37	544.31	1334.6	177.1	573.96	1621.5	319.5	629.44	926.71	436.55	620.09	907.92	219.23	411.77	948.89	397.59	398.27	954.86	324.08	587.13	813.35	532.87	484.05	833.1	147.88	531.77	972.09	499.31	490.52	955.72	166.83	378.7	903.87	355.8	665.29	628.65	526.96	741.06	574.38	484.92	681.8	540.66	511.06	719.34	660.74	497.98	724.1	476.24	494.1	719.14	455.75	350.88	702.55	259.42	482.84	798.44	204.95	478.96	732.22	192.03	477.48	774.2	270.02	491.48	778.72	104.34	472.21	795.69	120.93	392.15	736.7	69.625	408.67	764.61	45.707	383.62	744.57	39.098	443.89	888.4	83.477	513.18	936.24	96.766	415.78	960.67	136.64	477.33	424.33	619.64	183	485.56	528.17	189.29	408.76	533.13	207.89	494.33	620.38	165.31	453.73	451.18	203.82	451.77	453.88	342.19	342.05	295.27	214.82	397.71	199.81	233.2	329.43	224.45	234.43	403.84	273.92	214.52	340.18	103.58	249.67	347.91	101.72	333	276.11	74.829	286.92	284.03	48.16	320.05	280.04	47.478	258.35	445.29	34.506	227.35	467.57	43.263	337.43	528.66	55.966	290.25	463.3	1393.7	320.59	388.43	1142.5	328.51
407	1.6917	651.75	1099.7	333.02	535.9	1335.1	470.67	549.35	1333.5	177.46	578.93	1620.4	320.24	634.75	925.76	436.53	624.68	907.16	219.12	416.91	947.69	398.39	403.03	953.76	324.97	592.93	812.19	532.8	488.08	832.73	148.1	537.14	970.95	499.64	494.71	954.68	167.29	383.65	902.69	356.67	670.92	627.7	526.79	746.44	573.35	484.41	687.34	539.67	510.99	724.75	659.75	497.37	729.84	475.44	494.03	724.29	454.65	350.63	713.03	258.43	483.36	810.21	206.15	479.04	744.22	191.7	477.85	784.53	270.72	491.6	792.85	104.89	472.51	808.95	121.82	392.37	751.22	69.147	409.38	779.49	45.83	384.19	759.97	38.866	444.55	903.26	86.514	512.85	950.18	100.79	415.18	974.1	141.27	476.5	427.18	619.82	183.11	487.69	527.86	189.26	410.97	533.42	208	497.16	620.01	165.3	455.34	451.06	203.77	453.38	453.72	342.19	342.94	295.59	214.83	398.22	199.9	233.16	330.03	224.83	234.45	404.64	273.98	214.47	340.3	103.81	249.69	348.11	101.94	333.03	276.21	75.065	286.96	284.09	48.386	320.1	280.09	47.699	258.39	445.29	34.48	227.34	467.61	43.256	337.41	528.7	55.891	290.21	468.33	1392.7	320.91	393.22	1141.6	328.81
408	1.6958	656.64	1098.4	333.22	540.84	1333.9	470.98	554.39	1332.4	177.83	583.91	1619.3	320.99	640.06	924.78	436.51	629.28	906.38	219.01	422.08	946.46	399.21	407.82	952.63	325.87	598.72	810.96	532.71	492.14	832.34	148.32	542.54	969.77	499.98	498.93	953.63	167.75	388.61	901.48	357.55	676.53	626.71	526.62	751.84	572.29	483.92	692.88	538.65	510.91	730.17	658.72	496.8	735.59	474.64	493.99	729.44	453.52	350.41	723.39	257.52	483.87	821.76	207.39	479.08	756.04	191.46	478.21	794.71	271.44	491.69	806.72	105.54	472.77	821.92	122.79	392.56	765.44	68.812	410.06	794.05	46.086	384.72	775.06	38.791	445.17	917.79	89.585	512.45	963.74	104.8	414.49	987.2	145.85	475.58	430.07	619.96	183.24	489.86	527.53	189.21	413.23	533.68	208.12	500.02	619.61	165.26	457.01	450.91	203.71	455.08	453.54	342.18	343.89	295.91	214.84	398.76	199.98	233.12	330.68	225.22	234.47	405.5	274.03	214.42	340.43	104.03	249.71	348.32	102.17	333.05	276.31	75.311	286.98	284.15	48.623	320.14	280.14	47.925	258.43	445.3	34.453	227.33	467.65	43.25	337.39	528.74	55.816	290.17	473.38	1391.7	321.26	398.03	1140.5	329.13
409	1.7	661.54	1097	333.43	545.8	1332.6	471.33	559.43	1331.2	178.21	588.89	1618.1	321.75	645.39	923.76	436.5	633.89	905.58	218.9	427.26	945.21	400.03	412.63	951.49	326.78	604.51	809.68	532.63	496.25	831.94	148.52	547.95	968.56	500.34	503.16	952.56	168.21	393.61	900.25	358.43	682.14	625.69	526.45	757.24	571.21	483.47	698.42	537.6	510.81	735.6	657.66	496.27	741.35	473.84	493.96	734.58	452.37	350.21	733.6	256.7	484.39	833.09	208.66	479.1	767.64	191.32	478.55	804.71	272.18	491.77	820.29	106.29	473	834.6	123.82	392.71	779.34	68.608	410.71	808.25	46.455	385.21	789.81	38.853	445.75	931.97	92.662	511.99	976.94	108.78	413.72	999.96	150.35	474.59	432.99	620.07	183.38	492.09	527.17	189.14	415.55	533.9	208.25	502.9	619.2	165.22	458.75	450.74	203.64	456.9	453.32	342.17	344.9	296.24	214.83	399.34	200.05	233.08	331.38	225.62	234.48	406.41	274.07	214.36	340.57	104.26	249.73	348.54	102.4	333.08	276.41	75.566	287.01	284.22	48.875	320.18	280.19	48.159	258.47	445.3	34.425	227.32	467.69	43.246	337.37	528.79	55.738	290.13	478.43	1390.6	321.62	402.86	1139.5	329.48
